<svg width="15" height="17" viewBox="0 0 15 17" fill="none" xmlns="http://www.w3.org/2000/svg">
<path d="M12.9096 8.27048C11.6016 6.58539 9.79412 4.64851 7.39185 4.64851C6.4217 4.64851 5.5324 4.95519 4.59401 5.6105C3.80288 6.16574 2.99153 6.94694 1.87702 8.23174L1.84814 8.26402L2.0416 8.48676C3.63252 10.3074 5.0069 11.8795 7.39185 11.8795C8.44573 11.8795 9.46785 11.4954 10.516 10.7045C11.4081 10.0298 12.1675 9.17436 12.7768 8.48353L12.9356 8.30599L12.9096 8.27048ZM7.39185 5.16501C8.34756 5.16501 9.26574 5.47169 10.1984 6.15282C10.8884 6.65641 11.567 7.33755 12.3263 8.28662C11.2205 9.53591 9.56025 11.363 7.39185 11.363C6.40438 11.363 5.53817 11.0919 4.67197 10.4527C3.87795 9.8684 3.16189 9.05491 2.47181 8.26402C4.17823 6.33683 5.6017 5.16501 7.39185 5.16501Z" fill="black"/>
<path d="M7.39191 10.8465C8.66523 10.8465 9.70179 9.68763 9.70179 8.26402C9.70179 6.84042 8.66523 5.68152 7.39191 5.68152C6.11859 5.68152 5.08203 6.84042 5.08203 8.26402C5.08203 9.68763 6.11859 10.8465 7.39191 10.8465ZM7.39191 6.2077C8.40825 6.2077 9.23981 7.13095 9.23981 8.26402C9.23981 9.3971 8.40825 10.3203 7.39191 10.3203C6.37556 10.3203 5.54689 9.3971 5.54689 8.26402C5.54689 7.13095 6.37556 6.2077 7.39191 6.2077Z" fill="black"/>
<path d="M8.31578 8.26402C8.31578 8.82894 7.9 9.29702 7.3976 9.29702C6.8952 9.29702 6.46788 8.80635 6.46788 8.24142C6.46788 7.6765 6.92408 7.23102 7.39183 7.23102V6.71452C6.62668 6.71452 6.00879 7.41179 6.00879 8.27048C6.00879 9.12916 6.62957 9.82321 7.39183 9.82321C8.15409 9.82321 8.77775 9.12593 8.77775 8.27048V8.26402H8.31578Z" fill="black"/>
</svg>
