<svg width="15" height="12" viewBox="0 0 15 12" fill="none" xmlns="http://www.w3.org/2000/svg">
<g clip-path="url(#clip0_83_485)">
<path d="M10.6254 0.688668C12.3953 0.688668 13.8377 1.75395 13.8588 3.06939C13.8525 3.10572 13.8475 3.14205 13.8462 3.17967L13.8403 3.45272C13.534 5.5826 9.54361 8.66276 7.39115 10.1047C5.25451 8.67421 1.3052 5.62831 0.949706 3.49843L0.937117 3.17967C0.935731 3.14403 0.931227 3.10839 0.923951 3.06939C0.945664 1.75395 2.38795 0.688668 4.15778 0.688668C5.13047 0.688668 6.04634 1.02224 6.67023 1.60331L7.39161 2.27519L8.11298 1.60331C8.73688 1.02224 9.65275 0.688668 10.6254 0.688668ZM10.6254 0C9.31123 0 8.15364 0.463388 7.39161 1.17289C6.62958 0.463388 5.47198 0 4.15778 0C1.86141 0 0 1.38741 0 3.09901C0 3.13327 0.0121269 3.16555 0.0135128 3.1999H0C0 6.3769 7.39161 11.0187 7.39161 11.0187C7.39161 11.0187 14.7832 6.3769 14.7832 3.1999H14.7697C14.7711 3.16555 14.7832 3.13327 14.7832 3.09901C14.7832 1.38741 12.9218 0 10.6254 0Z" fill="#F44336"/>
</g>
<defs>
<clipPath id="clip0_83_485">
<rect width="14.7832" height="11.0187" fill="white"/>
</clipPath>
</defs>
</svg>
