<svg width="67" height="70" viewBox="0 0 67 70" fill="none" xmlns="http://www.w3.org/2000/svg">
<path d="M6.67012 34.668L0 23.1028L6.67012 11.5514H20.0104L26.6943 23.1028L20.0104 34.668H6.67012Z" fill="#CCE134"/>
<path d="M26.6943 23.1166L20.0242 11.5514L26.6943 0H40.0345L46.7046 11.5514L40.0345 23.1166H26.6943Z" fill="#F3922B"/>
<path d="M46.7185 34.668L40.0345 23.1166L46.7185 11.5514H60.0588L66.7289 23.1166L60.0588 34.668H46.7185Z" fill="#DC3348"/>
<path d="M6.89204 57.7846L0.221924 46.2193L6.89204 34.668H20.2461L26.9163 46.2193L20.2461 57.7846H6.89204Z" fill="#01B49E"/>
<path d="M26.9162 69.336L20.2461 57.7846L26.9162 46.2194H40.2564L46.9266 57.7846L40.2564 69.336H26.9162Z" fill="#A0A01C"/>
<path d="M46.7047 57.7846L40.0345 46.2193L46.7047 34.668H60.0449L66.715 46.2193L60.0449 57.7846H46.7047Z" fill="#3C7D90"/>
</svg>
