<svg width="53" height="55" viewBox="0 0 53 55" fill="none" xmlns="http://www.w3.org/2000/svg">
<path d="M27.3778 40.3391C21.3591 37.5692 16.5746 32.5366 13.987 26.2539L17.4734 23.8133C16.5088 21.2255 16.0119 18.4754 16.0077 15.7008H7.67672C7.67672 24.0108 10.8578 31.9804 16.5202 37.8564C22.1825 43.7325 29.8624 47.0336 37.8702 47.0336V38.3883C35.1093 38.3819 32.3749 37.8307 29.8125 36.7641L27.3778 40.3391Z" stroke="#6A757C" stroke-width="2" stroke-linecap="round" stroke-linejoin="round"/>
<path d="M25.4483 18.2789C28.0839 18.2789 30.6115 19.3654 32.4752 21.2994C34.3388 23.2333 35.3858 25.8564 35.3858 28.5914" stroke="#6A757C" stroke-width="2" stroke-linecap="round" stroke-linejoin="round"/>
<path d="M25.4483 13.1227C29.4017 13.1227 33.1931 14.7524 35.9886 17.6533C38.7841 20.5543 40.3545 24.4888 40.3545 28.5914" stroke="#6A757C" stroke-width="2" stroke-linecap="round" stroke-linejoin="round"/>
<path d="M25.4483 7.96641C30.7195 7.96641 35.7747 10.1394 39.502 14.0073C43.2293 17.8753 45.3233 23.1213 45.3233 28.5914" stroke="#6A757C" stroke-width="2" stroke-linecap="round" stroke-linejoin="round"/>
</svg>
